<?xml version="1.0" encoding="UTF-8" standalone="no"?>
<svg width="1392px" height="3360px" viewBox="0 0 1392 3360" version="1.1" xmlns="http://www.w3.org/2000/svg" xmlns:xlink="http://www.w3.org/1999/xlink" xmlns:sketch="http://www.bohemiancoding.com/sketch/ns">
    <!-- Generator: Sketch 3.4.4 (17249) - http://www.bohemiancoding.com/sketch -->
    <title>Line</title>
    <desc>Created with Sketch.</desc>
    <defs></defs>
    <g id="Page-1" stroke="none" stroke-width="1" fill="none" fill-rule="evenodd" sketch:type="MSPage">
        <g id="Article" sketch:type="MSArtboardGroup" transform="translate(-48.000000, -827.000000)" stroke="#B744B8" stroke-linecap="square">
            <path d="M343.555542,827 L48.555542,1239.02542 L158.06958,1480.99078 L628.137928,1034.70496 L654.114172,1143.73187 L689.174933,918.663195 L933.257782,959.007065 L804.575667,1048.27599 L1422.17292,1033.41835 L1180.50131,1152.32424 L1085.64175,1390.13602 L1347.03993,1417.73678 L1239.43989,1709.37395 L910.018623,1766.70118 L118.029929,1849.51464 L227.676267,2041.34381 L120.389036,1939.33177 L98.4988694,2057.49926 L152.921251,2054.63513 L155.821258,2090.72757 L59.1825927,2188.70074 L1288.6227,2151.12031 L1347.03992,2188.70077 L1377.2391,2592.12825 L1278.67144,2454.751 L1382.56338,2812.95668 L1279.96179,2644.97461 L93.7545881,2425.02453 L122.200726,2468.23252 L74.7709458,2478.84992 L158.069578,2494.45715 L110.639798,2520.6706 L1279.96178,2312.58529 L1231.60364,2582.31604 L780.293809,2862.08311 L1399.55938,3125.38113 L1097.29392,3076.53439 L1335.62237,3252.87939 L158.06958,2788.13843 L48.555542,2961.94556 L1382.56335,3590.94629 L1192.02441,3752.43115 L72.9323871,3819.81002 L206.980579,3927.15669 L81.9170725,3989.0867 L406.959867,4186.36703 L1521,4053.37354" id="Line" sketch:type="MSShapeGroup"></path>
        </g>
    </g>
</svg>