<?xml version="1.0" encoding="UTF-8" standalone="no"?>
<svg width="881px" height="512px" viewBox="0 0 881 512" version="1.1" xmlns="http://www.w3.org/2000/svg" xmlns:xlink="http://www.w3.org/1999/xlink" xmlns:sketch="http://www.bohemiancoding.com/sketch/ns">
    <!-- Generator: Sketch 3.4.4 (17249) - http://www.bohemiancoding.com/sketch -->
    <title>Hero Art</title>
    <desc>Created with Sketch.</desc>
    <defs></defs>
    <g id="Page-1" stroke="none" stroke-width="1" fill="none" fill-rule="evenodd" sketch:type="MSPage">
        <g id="Article" sketch:type="MSArtboardGroup" transform="translate(-487.000000, -73.000000)">
            <g id="Hero-Art" sketch:type="MSLayerGroup" transform="translate(487.000000, 74.000000)">
                <text id="y-=-2x" sketch:type="MSTextLayer" font-family="Helvetica" font-size="24" font-style="italic" font-weight="normal" fill="#FFFFFF">
                    <tspan x="0" y="244">y = 2</tspan>
                    <tspan x="52.6992188" y="244">x</tspan>
                </text>
                <circle id="Oval-1" fill="#FFFFFF" sketch:type="MSShapeGroup" cx="32.5" cy="218.5" r="7.5"></circle>
                <circle id="Oval-1-Copy" fill="#FFFFFF" sketch:type="MSShapeGroup" cx="873.5" cy="93.5" r="7.5"></circle>
                <path d="M122.578125,116.5 L517.5,116.5 L33.7890625,115.929688 L32.6875,211.203125" id="Line" stroke="#FFFFFF" stroke-width="3" stroke-linecap="square" sketch:type="MSShapeGroup"></path>
                <path d="M323.5,312.5 L716.5,312.5" id="Line-Copy" stroke="#FFFFFF" stroke-width="3" stroke-linecap="square" sketch:type="MSShapeGroup" transform="translate(520.000000, 312.500000) rotate(90.000000) translate(-520.000000, -312.500000) "></path>
                <path d="M519.5,507.5 L441.5,507.5" id="Line" stroke="#FFFFFF" stroke-width="3" stroke-linecap="square" sketch:type="MSShapeGroup"></path>
                <path d="M440.5,507.5 L440.5,284.078125 L698.007812,286.59375 L696.007812,387.109375 L620.320312,387.109375 L620.320312,228.007812 L808.382812,231.492187 L667.53125,131.117187 C667.53125,131.117187 900.872683,-100.27926 808.382812,53.0546865 C715.892942,206.388633 871.203125,96.703125 871.203125,96.703125" id="Line" stroke="#FFFFFF" stroke-width="3" stroke-linecap="square" sketch:type="MSShapeGroup"></path>
            </g>
        </g>
    </g>
</svg>